<svg id="圖層_1" data-name="圖層 1" xmlns="http://www.w3.org/2000/svg" viewBox="0 0 200 200"><defs><style>.cls-1{fill:#fff;}</style></defs><title>svg1</title><path class="cls-1" d="M111.15,123.92A10.94,10.94,0,0,1,99.9,135.39c-6.82-.24-10.48-4.23-11-10.82a10.85,10.85,0,0,1,11.19-11.48A11,11,0,0,1,111.15,123.92Z"/><path class="cls-1" d="M53.32,124.7c.2-5.87,3.16-9.25,8.39-9.43,5.65-.19,9.23,3.22,9.24,9s-3.65,9.11-9.24,9C56.34,133.21,53.77,129.46,53.32,124.7ZM62,128.39c2.77-.11,4.28-1.65,4.18-4.25a3.86,3.86,0,0,0-3.57-4c-2.79-.28-4.35,1.45-4.57,3.88S59.37,128.16,62,128.39Z"/><path class="cls-1" d="M129.11,124c.38-5.32,3.41-8.94,9.1-8.8,5.19.13,8.4,3.65,8.47,8.93.09,5.85-3.62,9.23-9.1,9.15C132.51,133.2,129.28,129.89,129.11,124Zm13,.51c-.4-2.31-1.15-4.37-4.07-4.4s-4.19,2-4.33,4.27a3.75,3.75,0,0,0,3.65,4C140.09,128.62,141.54,127.11,142.11,124.51Z"/><path class="cls-1" d="M72.53,74.06c.09-1.71.17-3.62.27-5.33h-.31c-1.08,1.53-2.26,3.07-3.36,4.6L57.61,87.26H81v2.29H54.16V87.89L72.86,65.2h2.21V99.74H72.53Z"/><path class="cls-1" d="M88.57,82.38c0-11.48,4.38-17.78,11.9-17.78s11.9,6.3,11.9,17.78-4.37,18-11.9,18S88.57,93.76,88.57,82.38Zm21.22,0c0-10.4-3.79-15.53-9.32-15.53S91.16,72,91.16,82.38s3.78,15.75,9.31,15.75S109.79,92.77,109.79,82.38Zm-12.32-.47a3,3,0,1,1,3,3.28A3,3,0,0,1,97.47,81.91Z"/><path class="cls-1" d="M137.27,74.06c.1-1.71.17-3.62.28-5.33h-.31c-1.09,1.53-2.26,3.07-3.36,4.6L122.36,87.26h23.36v2.29H118.91V87.89L137.6,65.2h2.22V99.74h-2.55Z"/><path class="cls-1" d="M198,100h-2a96.08,96.08,0,1,1-28.14-67.94A95.78,95.78,0,0,1,196.08,100H200A100,100,0,1,0,100,200,100,100,0,0,0,200,100Z"/></svg>